<?xml version="1.0" standalone="no"?>
<!DOCTYPE svg PUBLIC "-//W3C//DTD SVG 20010904//EN"
 "http://www.w3.org/TR/2001/REC-SVG-20010904/DTD/svg10.dtd">
<svg version="1.0" xmlns="http://www.w3.org/2000/svg"
 width="237.000000pt" height="217.000000pt" viewBox="0 0 237.000000 217.000000"
 preserveAspectRatio="xMidYMid meet">

<g transform="translate(0.000000,217.000000) scale(0.100000,-0.100000)"
fill="#000000" stroke="none">
<path d="M988 1693 l-3 -348 -65 -6 c-48 -4 -54 -6 -25 -8 l40 -2 -79 -40
c-135 -69 -252 -151 -418 -292 l-77 -65 50 -74 c28 -40 59 -82 70 -94 10 -11
19 -22 19 -25 0 -8 -195 1 -232 12 l-38 10 0 132 0 131 55 56 56 56 -32 67
-31 67 -73 0 -74 0 -40 -67 -41 -68 56 -56 55 -56 7 -117 c6 -103 5 -116 -9
-116 -12 0 -21 -18 -33 -66 l-17 -67 27 -64 c17 -39 32 -62 40 -59 14 5 20
-30 30 -171 4 -51 10 -93 15 -93 5 0 9 67 9 148 l0 149 25 11 c17 8 95 12 223
12 l196 0 76 -39 c41 -21 96 -46 123 -56 l47 -18 0 -61 0 -62 -42 -19 c-23
-11 -48 -30 -56 -43 l-14 -22 130 0 c72 0 133 4 136 9 3 5 -1 28 -9 51 -8 23
-15 57 -15 74 l0 31 140 0 141 0 -3 -39 c-3 -34 -7 -41 -33 -49 -30 -10 -85
-54 -85 -69 0 -11 258 -10 265 1 3 5 -1 29 -10 53 -8 24 -15 64 -15 89 l0 46
53 20 52 20 6 -34 c9 -54 30 -67 110 -71 l72 -4 -8 28 c-4 16 -9 61 -12 99 -4
69 -4 70 26 88 44 26 153 137 187 191 28 44 44 57 44 36 0 -20 74 -91 138
-131 37 -24 108 -59 157 -79 l90 -37 3 188 c1 104 1 275 0 379 l-3 191 -94
-58 c-104 -64 -246 -192 -276 -247 -11 -20 -22 -36 -25 -36 -3 0 -18 19 -35
41 -47 64 -189 196 -258 239 l-62 40 55 2 c51 1 50 2 -20 7 l-75 6 -3 348 -2
347 -290 0 -290 0 -2 -347z m-758 -489 c-18 -25 -33 -44 -35 -42 -1 2 -12 22
-24 46 l-21 42 55 0 56 0 -31 -46z m-76 -52 c-13 -2 -35 -2 -49 0 l-25 3 27
44 26 44 23 -44 22 -44 -24 -3z m166 -4 c0 -10 -71 -10 -87 0 -9 6 -5 19 14
51 l26 44 23 -44 c13 -24 23 -47 24 -51z m688 30 c16 -16 15 -48 -2 -48 -20 0
-39 27 -32 45 7 18 18 19 34 3z m412 -23 c0 -18 -14 -27 -34 -19 -16 6 -22 35
-10 47 10 10 44 -12 44 -28z m-1150 -70 c-33 -34 -52 -45 -75 -45 -23 0 -42
11 -75 45 l-44 45 119 0 119 0 -44 -45z m-50 -190 c0 -79 -4 -125 -10 -125
-18 0 -27 41 -33 148 l-5 102 24 0 24 0 0 -125z m480 -39 c159 -26 246 -31
480 -31 172 0 249 4 328 18 57 10 106 16 109 13 10 -10 -169 -186 -254 -250
-46 -34 -119 -81 -163 -105 l-79 -42 -148 102 c-243 167 -446 333 -388 315 11
-3 63 -12 115 -20z m-487 -97 c22 -7 37 -19 37 -28 0 -14 2 -14 10 -1 12 18
12 -30 2 -98 -6 -37 -13 -46 -50 -68 l-42 -25 -9 23 c-7 18 -5 27 12 40 12 10
17 18 12 18 -6 0 -17 -6 -23 -12 -10 -10 -15 -10 -22 2 -16 25 -11 38 18 49
l27 11 -27 -5 c-24 -5 -28 -2 -28 18 0 32 9 38 34 26 18 -9 18 -8 -3 9 -17 14
-22 24 -16 41 4 12 12 20 18 17 7 -2 29 -10 50 -17z m7 -281 c0 -87 -5 -86
-15 5 -4 45 -3 67 4 67 7 0 11 -27 11 -72z m1490 3 c0 -17 5 -33 10 -36 6 -3
10 -13 10 -21 0 -10 -14 -14 -54 -14 -66 0 -106 26 -106 71 l0 29 70 0 70 0 0
-29z"/>
<path d="M942 778 c-7 -7 -12 -20 -12 -29 0 -9 -7 -22 -15 -29 -19 -16 -20
-59 -1 -66 8 -3 16 -18 19 -33 10 -51 72 -46 105 8 13 22 22 27 32 20 8 -5 29
-9 45 -9 17 0 37 4 45 9 10 7 19 2 32 -20 34 -56 108 -59 108 -4 0 14 4 25 10
25 5 0 14 9 19 19 8 14 6 25 -9 44 -11 14 -20 32 -20 40 0 8 -7 20 -16 27 -22
19 -64 2 -89 -36 -19 -28 -23 -30 -40 -18 -25 18 -55 18 -83 -2 -20 -14 -22
-14 -22 1 0 43 -79 82 -108 53z"/>
<path d="M1632 470 c0 -19 2 -27 5 -17 2 9 2 25 0 35 -3 9 -5 1 -5 -18z"/>
<path d="M1662 470 c0 -19 2 -27 5 -17 2 9 2 25 0 35 -3 9 -5 1 -5 -18z"/>
<path d="M83 215 c-8 -9 -13 -44 -13 -90 l0 -76 33 3 c27 2 33 8 35 31 2 19 9
27 23 27 14 0 19 -7 19 -30 0 -27 3 -30 30 -30 l30 0 0 90 0 90 -72 0 c-50 -1
-77 -5 -85 -15z"/>
<path d="M263 215 c-8 -9 -13 -44 -13 -90 l0 -75 95 1 95 2 1 46 1 46 12 -34
c14 -40 36 -53 36 -22 0 12 4 21 9 21 5 0 12 8 14 18 3 9 5 -4 6 -30 l1 -48
40 0 40 0 0 90 0 90 -50 0 c-43 0 -50 -3 -50 -20 0 -13 -7 -20 -20 -20 -13 0
-20 7 -20 20 0 14 -7 20 -21 20 -28 0 -48 -27 -49 -66 0 -28 -2 -30 -30 -26
-28 4 -30 7 -30 48 0 41 -2 44 -27 44 -16 -1 -34 -7 -40 -15z"/>
<path d="M623 215 c-8 -9 -13 -44 -13 -90 l0 -75 73 0 c45 0 78 5 86 13 11 9
14 9 18 0 7 -19 127 -17 143 2 11 14 14 13 24 -1 20 -26 60 -14 64 19 2 19 9
27 23 27 15 0 19 -7 19 -31 0 -28 2 -30 33 -27 l32 3 0 85 0 85 -74 3 c-53 2
-77 -1 -82 -10 -7 -10 -11 -10 -21 0 -6 6 -29 12 -50 12 l-38 0 0 -65 c0 -63
-12 -86 -23 -45 -6 23 -51 28 -64 7 -5 -8 -21 -10 -48 -6 -39 6 -39 6 -6 8 24
1 32 5 28 15 -3 8 1 17 9 20 10 4 14 16 12 33 -3 27 -5 28 -68 30 -47 2 -69
-1 -77 -12z"/>
<path d="M1196 211 c-13 -15 -16 -34 -14 -87 l3 -69 78 -3 77 -3 0 36 c0 34
-2 35 -37 36 -31 2 -33 3 -10 6 15 2 27 11 27 19 0 8 5 14 10 14 6 0 10 16 10
35 l0 35 -63 0 c-50 0 -68 -4 -81 -19z"/>
<path d="M1362 218 c-7 -7 -12 -33 -12 -59 l0 -48 53 -4 52 -3 -52 -2 c-49 -2
-53 -4 -53 -27 0 -24 2 -25 71 -25 92 0 99 7 99 104 l0 76 -73 0 c-43 0 -78
-5 -85 -12z"/>
<path d="M1543 215 c-7 -8 -13 -28 -13 -45 0 -25 4 -30 24 -30 22 0 25 -5 28
-42 3 -43 3 -43 43 -43 40 0 40 0 43 43 3 37 6 42 27 42 21 0 24 -5 27 -42 l3
-43 170 -2 c139 -2 172 0 186 13 15 13 17 13 22 -1 8 -18 67 -21 85 -3 8 8 15
8 26 -1 9 -7 40 -11 83 -9 l68 3 3 69 c4 90 -9 106 -88 106 -31 0 -61 -5 -68
-12 -9 -9 -15 -9 -24 0 -18 18 -59 15 -73 -5 -13 -17 -14 -17 -32 0 -23 20
-122 24 -141 5 -9 -9 -15 -9 -24 0 -7 7 -29 12 -50 12 l-38 0 0 -65 c0 -37 -4
-65 -10 -65 -6 0 -10 28 -10 65 0 64 -1 65 -27 65 -14 0 -35 -7 -45 -17 -17
-15 -18 -15 -18 0 0 15 -12 17 -82 17 -59 -1 -87 -5 -95 -15z m467 -75 c0 -10
-4 -22 -10 -25 -6 -4 -10 7 -10 25 0 18 4 29 10 25 6 -3 10 -15 10 -25z m270
-5 c0 -19 -4 -35 -10 -35 -11 0 -14 53 -3 63 11 12 13 8 13 -28z"/>
</g>
</svg>
